<?xml version="1.0" encoding="UTF-8"?>
<svg width="20px" height="21px" viewBox="0 0 20 21" version="1.1" xmlns="http://www.w3.org/2000/svg" xmlns:xlink="http://www.w3.org/1999/xlink">
    <!-- Generator: Sketch 50.2 (55047) - http://www.bohemiancoding.com/sketch -->
    <title>Earphones-alt - simple-line-icons Copy 2</title>
    <desc>Created with Sketch.</desc>
    <defs></defs>
    <g id="Page-1" stroke="none" stroke-width="1" fill="none" fill-rule="evenodd">
        <g id="icons-1-copy" transform="translate(-402.000000, -176.000000)" fill="#D7D7D7">
            <path d="M422,187.441406 C422,187.467448 421.996745,187.496745 421.990234,187.529297 C421.983724,187.561849 421.973958,187.591146 421.960938,187.617188 C421.973958,187.65625 421.983724,187.701823 421.990234,187.753906 C421.996745,187.80599 422,187.858073 422,187.910156 L422,192.089844 C422,192.415366 421.91211,192.711587 421.736328,192.978516 C421.560546,193.245444 421.329429,193.44401 421.042969,193.574219 C421.016927,193.613281 420.984375,193.645833 420.945312,193.671875 C420.90625,193.697917 420.867188,193.717448 420.828125,193.730469 L414.382812,196.25 L413.269531,196.269531 L411.375,196.269531 C411.205728,196.269531 411.059245,196.207683 410.935547,196.083984 C410.811848,195.960286 410.75,195.813803 410.75,195.644531 L410.75,195.019531 C410.75,194.837239 410.811848,194.687501 410.935547,194.570312 C411.059245,194.453124 411.205728,194.394531 411.375,194.394531 L413.25,194.394531 C413.419272,194.394531 413.565755,194.453124 413.689453,194.570312 C413.813152,194.687501 413.875,194.837239 413.875,195.019531 L413.875,195.117188 L417.898438,193.535156 C417.63802,193.391926 417.426433,193.193361 417.263672,192.939453 C417.100911,192.685546 417.019531,192.402345 417.019531,192.089844 L417.019531,187.910156 C417.019531,187.454425 417.179035,187.063804 417.498047,186.738281 C417.817059,186.412759 418.210935,186.25 418.679688,186.25 L420.339844,186.25 C420.404948,186.25 420.466797,186.253255 420.525391,186.259766 C420.583985,186.266276 420.645833,186.276042 420.710938,186.289062 C420.697917,186.054686 420.684896,185.833334 420.671875,185.625 C420.658854,185.416666 420.645833,185.260417 420.632812,185.15625 C420.515624,184.049474 420.212893,183.027348 419.724609,182.089844 C419.236326,181.152339 418.611332,180.3418 417.849609,179.658203 C417.087887,178.974606 416.212245,178.440757 415.222656,178.056641 C414.233068,177.672524 413.178391,177.480469 412.058594,177.480469 C410.886713,177.480469 409.786463,177.69531 408.757812,178.125 C407.729162,178.55469 406.824223,179.143876 406.042969,179.892578 C405.261715,180.64128 404.633466,181.526688 404.158203,182.548828 C403.68294,183.570969 403.412761,184.680984 403.347656,185.878906 C403.347656,185.904948 403.344401,185.953776 403.337891,186.025391 C403.33138,186.097006 403.328125,186.184895 403.328125,186.289062 C403.380209,186.276042 403.435547,186.266276 403.494141,186.259766 C403.552735,186.253255 403.608073,186.25 403.660156,186.25 L405.339844,186.25 C405.808596,186.25 406.202472,186.412759 406.521484,186.738281 C406.840496,187.063804 407,187.454425 407,187.910156 L407,192.109375 C407,192.565106 406.840496,192.955728 406.521484,193.28125 C406.202472,193.606772 405.808596,193.769531 405.339844,193.769531 L403.660156,193.769531 C403.204425,193.769531 402.813804,193.606772 402.488281,193.28125 C402.162759,192.955728 402,192.565106 402,192.109375 L402,187.910156 C402,187.845052 402.003255,187.783203 402.009766,187.724609 C402.016276,187.666015 402.026042,187.610677 402.039062,187.558594 L402.039062,187.265625 C402.039062,187.018228 402.048828,186.728517 402.068359,186.396484 C402.087891,186.064451 402.097656,185.865886 402.097656,185.800781 C402.175782,184.446608 402.488279,183.1836 403.035156,182.011719 C403.582034,180.839838 404.301428,179.827478 405.193359,178.974609 C406.085291,178.121741 407.117182,177.451174 408.289062,176.962891 C409.460943,176.474607 410.717441,176.230469 412.058594,176.230469 C413.334642,176.230469 414.539057,176.451821 415.671875,176.894531 C416.804693,177.337242 417.807287,177.94596 418.679688,178.720703 C419.552088,179.495447 420.268226,180.423172 420.828125,181.503906 C421.388024,182.584641 421.739583,183.756504 421.882812,185.019531 C421.908854,185.240887 421.934896,185.647783 421.960938,186.240234 C421.986979,186.832685 422,187.233072 422,187.441406 Z M403.660156,187.5 C403.542968,187.5 403.445313,187.539062 403.367188,187.617188 C403.289062,187.695313 403.25,187.792968 403.25,187.910156 L403.25,192.109375 C403.25,192.213542 403.289062,192.307942 403.367188,192.392578 C403.445313,192.477214 403.542968,192.519531 403.660156,192.519531 L405.339844,192.519531 C405.457032,192.519531 405.554687,192.477214 405.632812,192.392578 C405.710938,192.307942 405.75,192.213542 405.75,192.109375 L405.75,187.910156 C405.75,187.792968 405.710938,187.695313 405.632812,187.617188 C405.554687,187.539062 405.457032,187.5 405.339844,187.5 L403.660156,187.5 Z M418.269531,187.910156 L418.269531,192.089844 C418.269531,192.194011 418.308593,192.288411 418.386719,192.373047 C418.464844,192.457683 418.562499,192.5 418.679688,192.5 L420.339844,192.5 C420.457032,192.5 420.554687,192.457683 420.632812,192.373047 C420.710938,192.288411 420.75,192.194011 420.75,192.089844 L420.75,187.910156 C420.75,187.792968 420.710938,187.695313 420.632812,187.617188 C420.554687,187.539062 420.457032,187.5 420.339844,187.5 L418.679688,187.5 C418.562499,187.5 418.464844,187.539062 418.386719,187.617188 C418.308593,187.695313 418.269531,187.792968 418.269531,187.910156 Z" id="Earphones-alt---simple-line-icons-Copy-2"></path>
        </g>
    </g>
</svg>