<?xml version="1.0" encoding="UTF-8"?>
<svg width="20px" height="15px" viewBox="0 0 20 15" version="1.1" xmlns="http://www.w3.org/2000/svg" xmlns:xlink="http://www.w3.org/1999/xlink">
    <!-- Generator: Sketch 50.2 (55047) - http://www.bohemiancoding.com/sketch -->
    <title>envelope - simple-line-icons</title>
    <desc>Created with Sketch.</desc>
    <defs></defs>
    <g id="Page-1" stroke="none" stroke-width="1" fill="none" fill-rule="evenodd">
        <g id="icons-1-copy" transform="translate(-79.000000, -225.000000)" fill="#D7D7D7">
            <path d="M98.9804688,226.78125 C98.9934896,226.807292 99,226.833333 99,226.859375 L99,236.9375 C99,237.458336 98.869793,237.953123 98.609375,238.421875 C98.348957,238.890627 97.9583359,239.125 97.4375,239.125 L81.1875,239.125 C80.6666641,239.125 80.1718773,238.890627 79.703125,238.421875 C79.2343727,237.953123 79,237.458336 79,236.9375 L79,226.859375 C79,226.833333 79.0065104,226.807292 79.0195312,226.78125 C78.9934895,226.690104 78.9934895,226.602214 79.0195312,226.517578 C79.045573,226.432942 79.0911455,226.351563 79.15625,226.273438 C79.1692709,226.260417 79.1822916,226.244141 79.1953125,226.224609 C79.2083334,226.205078 79.2278645,226.188802 79.2539062,226.175781 C79.4492197,225.915363 79.7259097,225.716798 80.0839844,225.580078 C80.4420591,225.443359 80.8098939,225.375 81.1875,225.375 L97.4375,225.375 C97.8541687,225.375 98.1894519,225.46289 98.4433594,225.638672 C98.6972669,225.814454 98.8632809,226.078123 98.9414062,226.429688 C98.967448,226.481771 98.9837239,226.537109 98.9902344,226.595703 C98.9967448,226.654297 98.9934896,226.716146 98.9804688,226.78125 Z M80.8945312,226.625 C80.7903641,226.625 80.6861984,226.63151 80.5820312,226.644531 L89,233.363281 L97.4375,226.625 L80.8945312,226.625 Z M97.4375,237.875 C97.6067717,237.875 97.7011718,237.761069 97.7207031,237.533203 C97.7402345,237.305337 97.75,237.106772 97.75,236.9375 L97.75,227.992188 L89.4101562,234.652344 C89.3450518,234.704427 89.2799482,234.743489 89.2148438,234.769531 C89.1497393,234.795573 89.0781254,234.808594 89,234.808594 C88.9218746,234.808594 88.8502607,234.795573 88.7851562,234.769531 C88.7200518,234.743489 88.6549482,234.704427 88.5898438,234.652344 L80.25,227.992188 L80.25,236.9375 C80.25,237.106772 80.3639312,237.305337 80.5917969,237.533203 C80.8196626,237.761069 81.0182283,237.875 81.1875,237.875 L97.4375,237.875 Z" id="envelope---simple-line-icons"></path>
        </g>
    </g>
</svg>